<?xml version="1.0" encoding="UTF-8" standalone="no"?>
<!-- Generator: Adobe Illustrator 13.0.1, SVG Export Plug-In . SVG Version: 6.00 Build 14948)  -->

<svg
   xmlns:dc="http://purl.org/dc/elements/1.1/"
   xmlns:cc="http://creativecommons.org/ns#"
   xmlns:rdf="http://www.w3.org/1999/02/22-rdf-syntax-ns#"
   xmlns:svg="http://www.w3.org/2000/svg"
   xmlns="http://www.w3.org/2000/svg"
   xmlns:sodipodi="http://sodipodi.sourceforge.net/DTD/sodipodi-0.dtd"
   xmlns:inkscape="http://www.inkscape.org/namespaces/inkscape"
   version="1.1"
   id="Layer_1"
   x="0px"
   y="0px"
   width="279.43307"
   height="40.825001"
   viewBox="0 0 279.43306 40.825"
   enable-background="new 0 0 331.644 40.825"
   xml:space="preserve"
   sodipodi:docname="FaceX_Logo.svg"
   inkscape:version="0.92.3 (2405546, 2018-03-11)"><metadata
   id="metadata27"><rdf:RDF><cc:Work
       rdf:about=""><dc:format>image/svg+xml</dc:format><dc:type
         rdf:resource="http://purl.org/dc/dcmitype/StillImage" /><dc:title></dc:title></cc:Work></rdf:RDF></metadata><defs
   id="defs25" /><sodipodi:namedview
   pagecolor="#ffffff"
   bordercolor="#666666"
   borderopacity="1"
   objecttolerance="10"
   gridtolerance="10"
   guidetolerance="10"
   inkscape:pageopacity="0"
   inkscape:pageshadow="2"
   inkscape:window-width="1366"
   inkscape:window-height="713"
   id="namedview23"
   showgrid="false"
   inkscape:zoom="2"
   inkscape:cx="118.83764"
   inkscape:cy="-14.478696"
   inkscape:window-x="0"
   inkscape:window-y="0"
   inkscape:window-maximized="1"
   inkscape:current-layer="g20"
   fit-margin-top="0"
   fit-margin-left="2"
   fit-margin-right="0"
   fit-margin-bottom="0"
   scale-x="0.2" />
<g
   id="g20"
   transform="translate(-52.210938)">
	<path
   style="fill:#005288"
   d="M 83.292969,15.093752 H 55.248047 l -1.037109,0.777344 v 24.947265 h 7.761718 v -9.355468 l 0.742188,-0.664063 h 8.949218 l 3.548829,-4.441406 H 62.798828 L 61.972656,25.55469 v -5.34375 l 0.740235,-0.679688 h 17.02539 c 1.50427,0.02781 5.400425,-4.279267 3.554688,-4.4375 z"
   id="path843"
   inkscape:connector-curvature="0"
   sodipodi:nodetypes="ccccccccccccccc" />
	<polyline
   points="99.081,19.813 105.761,29.6 105.391,30.548 90.618,30.548 86.847,35.187 108.837,35.187 110.361,36.115 113.775,40.824 122.659,40.824 103.186,14.775"
   id="polyline4"
   style="fill:#005288" />
	<polyline
   points="187.418,35.757 187.418,28.833 188.217,28.143 203.079,28.143 203.079,23.734 179.524,23.734 179.524,40.823 214.27,40.823 214.27,36.435 188.252,36.435"
   id="polyline6"
   style="fill:#005288" />
	<rect
   x="179.524"
   y="15.094"
   width="35.112999"
   height="4.848"
   id="rect8"
   style="fill:#005288" />
	<path
   d="m 140.361,19.685 h 28.288 c -0.436,-3.597 -2.668,-4.595 -8.33,-4.595 H 140.06 c -6.389,0 -8.427,1.247 -8.427,6.082 v 13.565 c 0,4.84 2.038,6.087 8.427,6.087 h 20.259 c 5.745,0 7.945,-1.079 8.095,-4.81 h -28.053 l -0.832,-0.783 V 20.209"
   id="path10"
   inkscape:connector-curvature="0"
   style="fill:#005288" />
	
	<path
   d="m 236.725,14.988 h -11.551 l -0.627,1.193 12.828,9.351 c 2.43,-1.407 5.074,-2.833 7.95,-4.24"
   id="path14"
   inkscape:connector-curvature="0"
   style="fill:#005288" />
	<path
   d="m 247.075,32.603 11.275,8.222 h 11.692 l 0.484,-1.089 -16.836,-12.323 c -2.236,1.641 -4.445,3.374 -6.615,5.19"
   id="path16"
   inkscape:connector-curvature="0"
   style="fill:#005288" />
	<path
   d="m 235.006,40.806 h -10.451 l -0.883,-1.383 C 230.778,32.562 262.56,3.151 331.644,0 c 0,0 -57.986,1.956 -96.638,40.806"
   id="path18"
   inkscape:connector-curvature="0"
   style="fill:#a7a9ac"
   inkscape:label="path18" />
</g>
</svg>